<svg width="360" height="320" viewBox="0 0 360 320" fill="none" xmlns="http://www.w3.org/2000/svg">
  <rect width="360" height="320" rx="36" fill="#FFF4EA"/>
  <path d="M57 247C80 206 129 182 181 182C232 182 283 206 309 247" fill="#FFE4C9"/>
  <ellipse cx="181" cy="267" rx="119" ry="20" fill="#EFD4B6"/>

  <g>
    <circle cx="123" cy="245" r="27" fill="#354A38"/>
    <circle cx="273" cy="245" r="27" fill="#354A38"/>
    <circle cx="123" cy="245" r="13" fill="#FAF4EA"/>
    <circle cx="273" cy="245" r="13" fill="#FAF4EA"/>
    <path d="M141 242H238L264 204H293" stroke="#516B54" stroke-width="10" stroke-linecap="round" stroke-linejoin="round"/>
    <path d="M164 203H252L231 162H176" stroke="#516B54" stroke-width="10" stroke-linecap="round" stroke-linejoin="round"/>
    <path d="M182 184H241" stroke="#516B54" stroke-width="10" stroke-linecap="round"/>
  </g>

  <g>
    <rect x="147" y="74" width="110" height="104" rx="28" fill="#FFB36B"/>
    <rect x="159" y="89" width="86" height="74" rx="22" fill="#FFF4EA"/>
    <circle cx="187" cy="120" r="6" fill="#925129"/>
    <circle cx="217" cy="120" r="6" fill="#925129"/>
    <path d="M189 138C194.5 144 209.5 144 215 138" stroke="#925129" stroke-width="6" stroke-linecap="round"/>
    <path d="M202 103C208 92 223 88 235 94" stroke="#FFB36B" stroke-width="10" stroke-linecap="round"/>
    <path d="M171 89C171 66 186 48 207 48C227 48 243 66 243 89" stroke="#FF8A4C" stroke-width="12" stroke-linecap="round"/>
    <path d="M172 92H243" stroke="#FF8A4C" stroke-width="12" stroke-linecap="round"/>
  </g>

  <g>
    <rect x="97" y="121" width="56" height="42" rx="14" fill="#FFE2C3"/>
    <path d="M112 142H138" stroke="#D27531" stroke-width="6" stroke-linecap="round"/>
    <path d="M117 131H134V151H117V131Z" stroke="#D27531" stroke-width="5" stroke-linejoin="round"/>
  </g>

  <g>
    <rect x="253" y="110" width="48" height="48" rx="16" fill="#E6F4E5"/>
    <path d="M268 141L278 126L289 141" stroke="#557647" stroke-width="6" stroke-linecap="round" stroke-linejoin="round"/>
    <path d="M264 147H292" stroke="#557647" stroke-width="6" stroke-linecap="round"/>
  </g>

  <path d="M146 67L120 52" stroke="#FF8A4C" stroke-width="8" stroke-linecap="round"/>
  <circle cx="113" cy="48" r="12" fill="#FFD6B1"/>
  <path d="M264 64L288 49" stroke="#FF8A4C" stroke-width="8" stroke-linecap="round"/>
  <circle cx="296" cy="45" r="12" fill="#FFD6B1"/>
</svg>
