<svg xmlns="http://www.w3.org/2000/svg" viewBox="0 0 640 360">
  <defs>
    <linearGradient id="bg" x1="0%" y1="0%" x2="100%" y2="100%">
      <stop offset="0%" stop-color="#33261f"/>
      <stop offset="100%" stop-color="#8a684a"/>
    </linearGradient>
    <filter id="shadow" x="-20%" y="-20%" width="140%" height="140%">
      <feDropShadow dx="0" dy="10" stdDeviation="12" flood-color="#000" flood-opacity=".28"/>
    </filter>
  </defs>
  <rect width="640" height="360" fill="url(#bg)"/>
  <rect y="234" width="640" height="126" fill="#1b1410" opacity=".34"/>
  <ellipse cx="252" cy="212" rx="104" ry="26" fill="#000" opacity=".22"/>
  <ellipse cx="420" cy="214" rx="116" ry="30" fill="#000" opacity=".22"/>
  <circle cx="250" cy="164" r="78" fill="#f7f2eb" filter="url(#shadow)"/>
  <circle cx="250" cy="164" r="62" fill="#fff"/>
  <circle cx="250" cy="164" r="46" fill="#5b341f"/>
  <ellipse cx="250" cy="164" rx="34" ry="30" fill="#7a4a2d"/>
  <ellipse cx="250" cy="146" rx="20" ry="10" fill="#b57a55" opacity=".42"/>
  <rect x="360" y="104" width="120" height="94" rx="16" fill="#f1d0a6" filter="url(#shadow)"/>
  <rect x="374" y="118" width="92" height="66" rx="12" fill="#f4dfc2"/>
  <path d="M374 144h92" stroke="#c8a17d" stroke-width="3"/>
  <path d="M420 118v66" stroke="#c8a17d" stroke-width="3"/>
  <circle cx="397" cy="139" r="9" fill="#fff7ef"/>
  <circle cx="443" cy="164" r="10" fill="#fff7ef"/>
  <rect x="24" y="24" width="272" height="112" rx="24" fill="#050505" opacity=".8"/>
  <rect x="36" y="36" width="248" height="88" rx="18" fill="#111111" opacity=".92"/>
  <text x="52" y="74" font-size="34" font-weight="700" fill="#fff" stroke="#000" stroke-width="1.5" paint-order="stroke fill" font-family="Segoe UI, Arial, sans-serif">咖啡甜点</text>
  <text x="52" y="106" font-size="17" fill="#ffffff" stroke="#000" stroke-width="0.8" paint-order="stroke fill" font-family="Segoe UI, Arial, sans-serif">咖啡与甜点组合，适合下午茶</text>
</svg>
