<svg xmlns="http://www.w3.org/2000/svg" viewBox="0 0 640 360">
  <defs>
    <linearGradient id="bg" x1="0%" y1="0%" x2="100%" y2="100%">
      <stop offset="0%" stop-color="#1f2734"/>
      <stop offset="100%" stop-color="#4d5f7a"/>
    </linearGradient>
    <filter id="shadow" x="-20%" y="-20%" width="140%" height="140%">
      <feDropShadow dx="0" dy="10" stdDeviation="12" flood-color="#000" flood-opacity=".28"/>
    </filter>
  </defs>
  <rect width="640" height="360" fill="url(#bg)"/>
  <rect y="236" width="640" height="124" fill="#0f141c" opacity=".34"/>
  <ellipse cx="320" cy="216" rx="178" ry="42" fill="#000" opacity=".24"/>
  <rect x="170" y="120" width="300" height="94" rx="18" fill="#2a2019" filter="url(#shadow)"/>
  <rect x="188" y="138" width="264" height="58" rx="12" fill="#422f24"/>
  <g>
    <rect x="206" y="152" width="68" height="14" rx="7" fill="#c37a39" transform="rotate(-8 240 159)"/>
    <rect x="250" y="167" width="70" height="14" rx="7" fill="#d58b46" transform="rotate(7 285 174)"/>
    <rect x="304" y="150" width="74" height="14" rx="7" fill="#b86c34" transform="rotate(-6 341 157)"/>
    <rect x="360" y="166" width="70" height="14" rx="7" fill="#d49452" transform="rotate(9 395 173)"/>
  </g>
  <circle cx="442" cy="112" r="16" fill="#b32121"/>
  <circle cx="442" cy="112" r="10" fill="#d53a30"/>
  <rect x="24" y="24" width="272" height="112" rx="24" fill="#050505" opacity=".8"/>
  <rect x="36" y="36" width="248" height="88" rx="18" fill="#111111" opacity=".92"/>
  <text x="52" y="74" font-size="34" font-weight="700" fill="#fff" stroke="#000" stroke-width="1.5" paint-order="stroke fill" font-family="Segoe UI, Arial, sans-serif">夜宵小吃</text>
  <text x="52" y="106" font-size="17" fill="#ffffff" stroke="#000" stroke-width="0.8" paint-order="stroke fill" font-family="Segoe UI, Arial, sans-serif">烧烤炸物和夜间加餐选择更多</text>
</svg>
