<svg xmlns="http://www.w3.org/2000/svg" viewBox="0 0 640 360">
  <defs>
    <linearGradient id="bg" x1="0%" y1="0%" x2="100%" y2="100%">
      <stop offset="0%" stop-color="#332720"/>
      <stop offset="100%" stop-color="#7d5d42"/>
    </linearGradient>
    <filter id="shadow" x="-20%" y="-20%" width="140%" height="140%">
      <feDropShadow dx="0" dy="12" stdDeviation="14" flood-color="#000" flood-opacity=".3"/>
    </filter>
  </defs>
  <rect width="640" height="360" fill="url(#bg)"/>
  <rect y="236" width="640" height="124" fill="#1d1410" opacity=".36"/>
  <ellipse cx="322" cy="214" rx="174" ry="40" fill="#000" opacity=".22"/>
  <circle cx="322" cy="166" r="124" fill="#21201d" filter="url(#shadow)"/>
  <circle cx="322" cy="164" r="112" fill="#f6f2eb"/>
  <circle cx="322" cy="164" r="95" fill="#7a2f18"/>
  <path d="M244 138c35 6 70 1 104-10 16-6 34-9 51-5 14 4 28 13 38 24-13 30-47 55-88 63-51 10-110-5-144-37-9-8-15-18-19-28 18-7 39-10 58-7z" fill="#c78b3a"/>
  <path d="M225 155c22 5 45 7 69 5 35-2 69-13 100-26 10-4 22-6 32-4 10 2 19 7 27 14-16 25-44 44-77 54-52 14-113 8-154-17-10-7-18-15-24-26 8-2 18-2 27 0z" fill="none" stroke="#f1d384" stroke-width="9" stroke-linecap="round"/>
  <path d="M238 178c18 4 42 4 61-2 13-4 27-11 35-23 9 6 17 15 21 26-9 11-24 19-40 22-24 5-51 0-77-12z" fill="#3f6e35"/>
  <circle cx="284" cy="129" r="13" fill="#631d10"/>
  <circle cx="359" cy="114" r="15" fill="#6d2410"/>
  <circle cx="392" cy="188" r="14" fill="#2e5f2d"/>
  <rect x="24" y="24" width="272" height="112" rx="24" fill="#050505" opacity=".8"/>
  <rect x="36" y="36" width="248" height="88" rx="18" fill="#111111" opacity=".92"/>
  <text x="52" y="74" font-size="34" font-weight="700" fill="#fff" stroke="#000" stroke-width="1.5" paint-order="stroke fill" font-family="Segoe UI, Arial, sans-serif">面馆粉档</text>
  <text x="52" y="106" font-size="17" fill="#ffffff" stroke="#000" stroke-width="0.8" paint-order="stroke fill" font-family="Segoe UI, Arial, sans-serif">汤面拌面和米粉，出餐通常更快</text>
</svg>
