<svg xmlns="http://www.w3.org/2000/svg" viewBox="0 0 640 360">
  <defs>
    <linearGradient id="bg" x1="0%" y1="0%" x2="100%" y2="100%">
      <stop offset="0%" stop-color="#49372a"/>
      <stop offset="100%" stop-color="#98714f"/>
    </linearGradient>
    <filter id="shadow" x="-20%" y="-20%" width="140%" height="140%">
      <feDropShadow dx="0" dy="12" stdDeviation="14" flood-color="#000" flood-opacity=".26"/>
    </filter>
  </defs>
  <rect width="640" height="360" fill="url(#bg)"/>
  <rect y="228" width="640" height="132" fill="#201711" opacity=".32"/>
  <ellipse cx="322" cy="220" rx="172" ry="42" fill="#000" opacity=".22"/>
  <rect x="176" y="68" width="292" height="190" rx="28" fill="#1a1714" filter="url(#shadow)"/>
  <rect x="188" y="80" width="268" height="166" rx="22" fill="#111"/>
  <rect x="204" y="96" width="236" height="134" rx="18" fill="#f2e0b9"/>
  <ellipse cx="270" cy="163" rx="72" ry="52" fill="#fcfaf5"/>
  <ellipse cx="356" cy="163" rx="64" ry="44" fill="#824823"/>
  <ellipse cx="356" cy="163" rx="54" ry="35" fill="#9d5628"/>
  <path d="M316 146c15-20 41-28 63-23 15 3 31 11 39 24-4 10-11 18-20 25-18 12-42 17-64 12-16-3-32-13-39-26 4-4 14-9 21-12z" fill="#c57934"/>
  <path d="M333 135c14-8 32-9 47-4 10 4 20 11 26 20-3 8-11 14-19 18-18 9-41 9-58 1-10-5-18-13-22-22 7-5 16-10 26-13z" fill="#d69242"/>
  <circle cx="352" cy="154" r="16" fill="#f4d06f"/>
  <path d="M220 138c12-10 31-12 44-4 9 6 14 17 15 28 1 17-8 33-21 44-15-4-29-15-36-29-6-12-6-28-2-39z" fill="#ffffff"/>
  <path d="M256 136c8-8 19-8 28-5 8 3 15 10 17 19-4 5-10 9-17 11-10 4-22 4-31 0-6-3-12-8-14-15 3-4 9-8 17-10z" fill="#fff8ea"/>
  <rect x="24" y="24" width="272" height="112" rx="24" fill="#050505" opacity=".8"/>
  <rect x="36" y="36" width="248" height="88" rx="18" fill="#111111" opacity=".92"/>
  <text x="52" y="74" font-size="34" font-weight="700" fill="#fff" stroke="#000" stroke-width="1.5" paint-order="stroke fill" font-family="Segoe UI, Arial, sans-serif">盖饭简餐</text>
  <text x="52" y="106" font-size="17" fill="#ffffff" stroke="#000" stroke-width="0.8" paint-order="stroke fill" font-family="Segoe UI, Arial, sans-serif">盖饭便当为主，分量稳定饱腹</text>
</svg>
