<svg xmlns="http://www.w3.org/2000/svg" viewBox="0 0 640 360">
  <defs>
    <linearGradient id="bg" x1="0%" y1="0%" x2="100%" y2="100%">
      <stop offset="0%" stop-color="#311817"/>
      <stop offset="100%" stop-color="#7f2d1f"/>
    </linearGradient>
    <filter id="shadow" x="-20%" y="-20%" width="140%" height="140%">
      <feDropShadow dx="0" dy="12" stdDeviation="14" flood-color="#000" flood-opacity=".3"/>
    </filter>
  </defs>
  <rect width="640" height="360" fill="url(#bg)"/>
  <rect y="236" width="640" height="124" fill="#170b0b" opacity=".36"/>
  <ellipse cx="320" cy="212" rx="174" ry="42" fill="#000" opacity=".24"/>
  <circle cx="320" cy="164" r="126" fill="#29211d" filter="url(#shadow)"/>
  <circle cx="320" cy="162" r="114" fill="#f4ede4"/>
  <circle cx="320" cy="162" r="98" fill="#8f1d13"/>
  <circle cx="320" cy="162" r="90" fill="#a62116"/>
  <g opacity=".98">
    <rect x="238" y="114" width="56" height="34" rx="8" fill="#d1a577" transform="rotate(-9 266 131)"/>
    <rect x="304" y="102" width="62" height="40" rx="10" fill="#b46f46" transform="rotate(12 335 122)"/>
    <rect x="370" y="132" width="58" height="36" rx="9" fill="#d6c27a" transform="rotate(-12 399 150)"/>
    <circle cx="272" cy="184" r="22" fill="#3f7f39"/>
    <circle cx="344" cy="184" r="20" fill="#5f973b"/>
    <circle cx="388" cy="192" r="18" fill="#e1c34c"/>
    <circle cx="240" cy="178" r="17" fill="#d6652b"/>
    <circle cx="310" cy="150" r="15" fill="#f1d279"/>
    <circle cx="358" cy="222" r="16" fill="#6c3320"/>
  </g>
  <rect x="24" y="24" width="272" height="112" rx="24" fill="#050505" opacity=".8"/>
  <rect x="36" y="36" width="248" height="88" rx="18" fill="#111111" opacity=".92"/>
  <text x="52" y="74" font-size="34" font-weight="700" fill="#fff" stroke="#000" stroke-width="1.5" paint-order="stroke fill" font-family="Segoe UI, Arial, sans-serif">麻辣香锅</text>
  <text x="52" y="106" font-size="17" fill="#ffffff" stroke="#000" stroke-width="0.8" paint-order="stroke fill" font-family="Segoe UI, Arial, sans-serif">麻辣浓郁，适合重口味加餐</text>
</svg>
