<svg width="320" height="320" viewBox="0 0 320 320" fill="none" xmlns="http://www.w3.org/2000/svg">
  <rect width="320" height="320" fill="#FFF8F0"/>

  <g opacity="0.85">
    <rect x="30" y="34" width="54" height="54" rx="18" fill="#FFE0C2"/>
    <path d="M46 53H68C71.3137 53 74 55.6863 74 59V70C74 73.3137 71.3137 76 68 76H46C42.6863 76 40 73.3137 40 70V59C40 55.6863 42.6863 53 46 53Z" fill="#B75A2D"/>
    <path d="M45 52L57 42L69 52" stroke="#B75A2D" stroke-width="5" stroke-linecap="round" stroke-linejoin="round"/>
  </g>

  <g opacity="0.9">
    <rect x="140" y="24" width="72" height="72" rx="24" fill="#FFEAD9"/>
    <circle cx="176" cy="52" r="18" fill="#FFB777"/>
    <path d="M160 73C165 64.5 187 64.5 192 73" stroke="#9C4D23" stroke-width="5" stroke-linecap="round"/>
    <circle cx="169" cy="51" r="2.8" fill="#6E3B20"/>
    <circle cx="183" cy="51" r="2.8" fill="#6E3B20"/>
    <path d="M171 59.5C173 61 179 61 181 59.5" stroke="#6E3B20" stroke-width="3" stroke-linecap="round"/>
  </g>

  <g opacity="0.9">
    <rect x="238" y="42" width="52" height="52" rx="18" fill="#E6F4E5"/>
    <circle cx="252" cy="80" r="7" fill="#557647"/>
    <circle cx="276" cy="80" r="7" fill="#557647"/>
    <path d="M250 79L258 61H275L281 72H287" stroke="#557647" stroke-width="5" stroke-linecap="round" stroke-linejoin="round"/>
    <path d="M265 61V53H278" stroke="#557647" stroke-width="5" stroke-linecap="round"/>
  </g>

  <g opacity="0.84">
    <rect x="44" y="132" width="68" height="68" rx="24" fill="#FFF1B6"/>
    <path d="M58 171C66 149 91 149 98 171" stroke="#D87A29" stroke-width="5" stroke-linecap="round"/>
    <path d="M61 165H95" stroke="#D87A29" stroke-width="5" stroke-linecap="round"/>
    <path d="M72 155C73.5 151 77 148 82 148C87 148 90.5 151 92 155" stroke="#D87A29" stroke-width="5" stroke-linecap="round"/>
  </g>

  <g opacity="0.86">
    <rect x="146" y="132" width="60" height="60" rx="20" fill="#DFF1FF"/>
    <path d="M160 147H193" stroke="#5B7A9A" stroke-width="5" stroke-linecap="round"/>
    <path d="M166 159H193" stroke="#5B7A9A" stroke-width="5" stroke-linecap="round"/>
    <path d="M166 171H184" stroke="#5B7A9A" stroke-width="5" stroke-linecap="round"/>
    <path d="M158 159L162 163L169 153" stroke="#5B7A9A" stroke-width="4" stroke-linecap="round" stroke-linejoin="round"/>
  </g>

  <g opacity="0.9">
    <rect x="230" y="128" width="62" height="62" rx="22" fill="#FFE3D8"/>
    <path d="M246 166C248.5 157.5 257 151 267 151C277 151 285.5 157.5 288 166" stroke="#C45C4A" stroke-width="5" stroke-linecap="round"/>
    <path d="M256 149C256 142 261 137 268 137C275 137 280 142 280 149" stroke="#C45C4A" stroke-width="5" stroke-linecap="round"/>
  </g>

  <g opacity="0.85">
    <rect x="28" y="226" width="58" height="58" rx="20" fill="#EDE3FF"/>
    <path d="M44 253H72" stroke="#7B63A8" stroke-width="5" stroke-linecap="round"/>
    <path d="M50 242H66V264H50V242Z" stroke="#7B63A8" stroke-width="5" stroke-linejoin="round"/>
    <path d="M55 235H61" stroke="#7B63A8" stroke-width="5" stroke-linecap="round"/>
  </g>

  <g opacity="0.88">
    <rect x="122" y="230" width="78" height="78" rx="28" fill="#FFE9C9"/>
    <path d="M147 270C153 255 170 247 185 250" stroke="#B56B2B" stroke-width="5" stroke-linecap="round"/>
    <path d="M142 268C149 277 160 282 172 282C183 282 194 277 201 268" stroke="#B56B2B" stroke-width="5" stroke-linecap="round"/>
    <circle cx="158" cy="264" r="3" fill="#B56B2B"/>
    <circle cx="183" cy="264" r="3" fill="#B56B2B"/>
  </g>

  <g opacity="0.88">
    <rect x="230" y="228" width="60" height="60" rx="22" fill="#E9F6E1"/>
    <path d="M249 262L260 248L271 262" stroke="#567544" stroke-width="5" stroke-linecap="round" stroke-linejoin="round"/>
    <path d="M246 268H274" stroke="#567544" stroke-width="5" stroke-linecap="round"/>
  </g>
</svg>
